<svg xmlns="http://www.w3.org/2000/svg" version="1.1" xmlns:xlink="http://www.w3.org/1999/xlink" xmlns:svgjs="http://svgjs.dev/svgjs" width="1500" height="1500" viewBox="0 0 1500 1500"><rect width="1500" height="1500" fill="#000000"></rect><g transform="matrix(0.6666666666666666,0,0,0.6666666666666666,250.00007343750008,187.66666666666674)"><svg viewBox="0 0 320 360" data-background-color="#fffff5" preserveAspectRatio="xMidYMid meet" height="1687" width="1500" xmlns="http://www.w3.org/2000/svg" xmlns:xlink="http://www.w3.org/1999/xlink"><g id="tight-bounds" transform="matrix(1,0,0,1,0.000023499999997511622,0)"><svg viewBox="0 0 320 360" height="360" width="320"><g><svg></svg></g><g><svg viewBox="0 0 320 360" height="360" width="320"><g><path transform="translate(-74.99272,-51.79039) scale(4.65793,4.65793)" d="M20.6 59.9l0.8 1-0.4-1.3c-0.1-0.6-0.8 0.1-0.4 0.3M21.5 59.3c0.3 0.5 0.6 1 0.6 1.5 0 0.7 0.6 1 1.1 1.2-0.7-0.8-1.1-3-1.7-2.7M59.9 16.9c1.7 0 3.3-0.2 5.1 0.2 4.4 1.1 8.1 3.3 10.6 6.4l7 11.2c0.3 2.8 0.9 5.9 0.8 9.3 0.7 0 0.6-1 1.4-1.2-0.8 2-1.2 4.5-1.4 7.4-0.5-1.6 0-4 0.1-5.3-0.7 1.1-1.1 0.3-1.1-0.2 0.1-0.8-0.3-0.7-0.6-1-1.1-1-1.8-2.1-2.6-3.8 0.5-1.3 0.6-3.2-1-4.2-0.5-0.3-1.1-0.8-1.4-1.6-0.4-1.1-1.1-2.4-0.9-4.1 0.1-0.5-1.5 1.1-2.4 0.4-3.9-2.7-7.8-5.8-12.5-8.4-2.5 0-4.3-0.9-5.2-2-0.8-1-0.2-2.3 1-2.4 0.7 0 1.5-0.2 2.1 0.2 0.1-0.4 0.5-0.9 1-0.9M50 14.6l0.2 0.1c1 0.2 1.5 1.6 2.6 1.1 0 0.7 0.1 1.4-0.1 1.9-0.3 0.8-1.2 0.8-1.9 0.8-6.7-0.4-10.6 2.4-14.7 4.8-1.1 0.7-2.3 1.2-3.2 2.1-4.3 4-9 7.7-10.1 15.1l-0.9 8.2c-0.1 0.9-1.1 1.8-0.9 2.9l0.7 4.9c-0.7-0.7-1.1 0.2-0.9 0.6 0.1 0.3 0.5 1.3 1.1 0.4 0.8 1.5 1.6 4.4 2.7 5.7 3.4 4 7.8 7.6 11.4 11.2 0.9-0.2 1.6-0.2 1.8-0.8 0.3 0.6-0.3 1.2-0.8 1.3 1.6 1 3.4 1.9 5.8 2.1 3.1 0.2 6 0.7 8.7 1.4 1.4-0.4 2.8-0.6 4.3-0.7 0.5 0 0.8-0.8 1.4-1l0.1-1c0.6 0.9 0.5-0.3 0.1-0.9 0.7 0.6 0.9 1.1 1.2 1.5 0-0.3 0.8-1.4 0.8-0.1l0.2-1.3c0.3-0.2 0.4 1.1 0.7 0.2 0.3-0.9 0.9-0.2 1.5-0.5-0.2 0.4-0.1 1.2 0.6 0.7l0.8-0.7c0.5 1.2 1.3 0.7 1.7 0.5 4.4-2.8 8.8-6.1 13-9.4l-0.1 1.3 0.5-1.6c0.5 0.5 0.9 0.1 1.1-0.2 0.6-1 1.4-2 2.7-2.9-1.6 4.3-3.5 7.7-5.9 10.5l-1 1.2c0 0.7-0.2 1.6-1 1.7-0.4 0.1-1.2-0.2-1.8 0.4-0.3 0.4 0.7 1.2-0.1 0.6-0.7-0.5-1.4 0-2.2 0.2-0.6 0.2 0.4 0.8 0.6 1.2 0.2 0.4 0.4 0.8 0.3 1.3l-1.1-1.2c-1.3 0.7-2.1 2-3.2 3-0.5 0.4-0.3 1.1-0.3 1.7-0.7 0-1.5-0.2-1.9 0.2-0.3 0.4-0.2 1-0.2 1.6-1-0.1-1.1-1.6-2-1.3-0.9 0.2-1.9 0.3-2.7 0.8 0.6 1.2-1 0.5-0.8 0.7-1.5-0.9-2.8-1.6-4.4-1-3.4-1.1-7.6-0.6-10.7-0.2 0-0.5 0.1-1-0.1-1.1-0.2 0.5-0.8 0.3-0.7 0.3-1.9-1.3-3.8-2.1-5.8-3.2-1.8 0.2-3.5-0.7-4-1.2-1.4-1.3-3-0.6-4.3-0.9-2.8-0.7-3.8-3.6-4.1-5.6-0.2-1-1-1.4-1.3-1.3-1.3-4.2-3.3-8-4.9-11.9-0.4-1-0.3-2-0.3-3.1 0.5 0.2 1 0.1 0.9-0.6-0.5-3.3-1.7-5.8-3-8.2 0.7-3.4 0.8-7.4 2.4-10.4 1.4-2.7 4-4.1 5.8-6.4 0.6-0.8 0.6-1.9 1.2-2.6 2-2 4-4.1 6.2-5.9 1-0.8 2.2 0 3.7-0.3 0.5-1.8 2.5-3.4 4.4-2.9 0.8 0.2 2.4-1.9 2.9-2.1 0.8-0.3 0.4 0.8 0.4 1.5 1.9-1.5 4.5-2.3 6.9-3.2" fill="#ffffff" fill-rule="nonzero" stroke="none" stroke-width="1" stroke-linecap="butt" stroke-linejoin="miter" stroke-miterlimit="10" stroke-dasharray="" stroke-dashoffset="0" font-family="none" font-weight="none" font-size="none" text-anchor="none" style="mix-blend-mode: normal" data-fill-palette-color="tertiary"></path></g><g transform="matrix(1,0,0,1,64,104.78210820461581)"><svg viewBox="0 0 192 150.43578359076838" height="150.43578359076838" width="192"><g><svg viewBox="0 0 192 150.43578359076838" height="150.43578359076838" width="192"><g><svg viewBox="0 0 192 150.43578359076838" height="150.43578359076838" width="192"><g transform="matrix(1,0,0,1,0,89.40030645234901)"><svg viewBox="0 0 192 61.03547713841936" height="61.03547713841936" width="192"><g id="textblocktransform"><svg viewBox="0 0 192 61.03547713841936" height="61.03547713841936" width="192" id="textblock"><g><svg viewBox="0 0 192 34.60210141617176" height="34.60210141617176" width="192"><g transform="matrix(1,0,0,1,0,0)"><svg width="192" viewBox="5.35 -38.6 218.88 39.45" height="34.60210141617176" data-palette-color="#091627"><path d="M26.45 0L12.8-17.1 10.2-14.35 10.2 0 5.35 0 5.35-37.9 10.2-37.9 10.2-20.95 26.3-37.9 32.45-37.9 16.1-20.6 32.7 0 26.45 0ZM39.7 0L39.7-37.9 44.55-37.9 44.55 0 39.7 0ZM79.6-37.9L79.6-33.55 68.2-33.55 68.2 0 63.3 0 63.3-33.55 51.9-33.55 51.9-37.9 79.6-37.9ZM91.79-4.2L110.14-4.2 110.14 0 86.94 0 86.94-37.9 109.89-37.9 109.89-33.7 91.79-33.7 91.79-21.15 107.39-21.15 107.39-16.95 91.79-16.95 91.79-4.2ZM134.49 0.85Q128.39 0.85 124.24-1.6 120.09-4.05 118.02-8.5 115.94-12.95 115.94-18.9L115.94-18.9Q115.94-24.5 117.99-28.95 120.04-33.4 124.22-36 128.39-38.6 134.49-38.6L134.49-38.6Q137.14-38.6 139.22-38.18 141.29-37.75 143.69-36.75L143.69-36.75 143.69-32.3Q139.44-34.35 134.59-34.35L134.59-34.35Q130.39-34.35 127.29-32.38 124.19-30.4 122.54-26.88 120.89-23.35 120.94-18.9L120.94-18.9Q120.94-14.3 122.54-10.8 124.14-7.3 127.19-5.35 130.24-3.4 134.49-3.4L134.49-3.4Q137.14-3.4 139.72-4.15 142.29-4.9 145.14-6.3L145.14-6.3 146.69-2.2Q143.79-0.7 140.59 0.08 137.39 0.85 134.49 0.85L134.49 0.85ZM153.79 0L153.79-37.9 158.64-37.9 158.64 0 153.79 0ZM193.69-37.9L193.69-33.55 182.29-33.55 182.29 0 177.39 0 177.39-33.55 165.99-33.55 165.99-37.9 193.69-37.9ZM205.88-4.2L224.23-4.2 224.23 0 201.03 0 201.03-37.9 223.98-37.9 223.98-33.7 205.88-33.7 205.88-21.15 221.48-21.15 221.48-16.95 205.88-16.95 205.88-4.2Z" opacity="1" transform="matrix(1,0,0,1,0,0)" fill="#ffffff" class="wordmark-text-0" data-fill-palette-color="primary" id="text-0"></path></svg></g></svg></g><g transform="matrix(1,0,0,1,0,39.651378463225214)"><svg viewBox="0 0 192 21.38409867519415" height="21.38409867519415" width="192"><g transform="matrix(1,0,0,1,0,0)"><svg width="192" viewBox="1.15 -35.6 325.03000000000003 36.2" height="21.38409867519415" data-palette-color="#091627"><path d="M13.05 0L8.1 0 1.15-32.8 5.45-32.8 8.9-14.95Q9.35-12.25 9.85-9.65 10.35-7.05 10.8-4.35L10.8-4.35 11-4.35Q11.55-7.05 12.15-9.68 12.75-12.3 13.3-14.95L13.3-14.95 17.85-32.8 21.65-32.8 26.2-14.95Q26.8-12.35 27.4-9.7 28-7.05 28.6-4.35L28.6-4.35 28.8-4.35Q29.25-7.05 29.7-9.68 30.15-12.3 30.65-14.95L30.65-14.95 34.1-32.8 38.1-32.8 31.3 0 26.3 0 21.35-19.75Q20.9-21.65 20.53-23.48 20.15-25.3 19.75-27.2L19.75-27.2 19.55-27.2Q19.15-25.3 18.73-23.48 18.3-21.65 17.9-19.75L17.9-19.75 13.05 0ZM56.04 0.6L56.04 0.6Q53.59 0.6 51.46-0.28 49.34-1.15 47.76-2.78 46.19-4.4 45.29-6.75 44.39-9.1 44.39-12.1L44.39-12.1Q44.39-15.1 45.31-17.48 46.24-19.85 47.76-21.5 49.29-23.15 51.24-24.03 53.19-24.9 55.29-24.9L55.29-24.9Q57.59-24.9 59.41-24.1 61.24-23.3 62.46-21.8 63.69-20.3 64.34-18.2 64.99-16.1 64.99-13.5L64.99-13.5Q64.99-12.85 64.96-12.23 64.94-11.6 64.84-11.15L64.84-11.15 48.44-11.15Q48.69-7.25 50.86-4.98 53.04-2.7 56.54-2.7L56.54-2.7Q58.29-2.7 59.76-3.23 61.24-3.75 62.59-4.6L62.59-4.6 64.04-1.9Q62.44-0.9 60.49-0.15 58.54 0.6 56.04 0.6ZM48.39-14.1L48.39-14.1 61.39-14.1Q61.39-17.8 59.81-19.73 58.24-21.65 55.39-21.65L55.39-21.65Q54.09-21.65 52.91-21.15 51.74-20.65 50.79-19.68 49.84-18.7 49.21-17.3 48.59-15.9 48.39-14.1ZM84.52 0.6L84.52 0.6Q82.82 0.6 81-0.23 79.17-1.05 77.57-2.5L77.57-2.5 77.42-2.5 77.07 0 73.77 0 73.77-35.6 77.87-35.6 77.87-25.9 77.77-21.5Q79.42-22.95 81.37-23.93 83.32-24.9 85.37-24.9L85.37-24.9Q87.72-24.9 89.52-24.03 91.32-23.15 92.55-21.53 93.77-19.9 94.4-17.63 95.02-15.35 95.02-12.55L95.02-12.55Q95.02-9.45 94.17-7 93.32-4.55 91.87-2.85 90.42-1.15 88.52-0.28 86.62 0.6 84.52 0.6ZM83.82-2.85L83.82-2.85Q85.32-2.85 86.6-3.53 87.87-4.2 88.8-5.43 89.72-6.65 90.25-8.45 90.77-10.25 90.77-12.5L90.77-12.5Q90.77-14.5 90.42-16.15 90.07-17.8 89.3-18.98 88.52-20.15 87.3-20.8 86.07-21.45 84.37-21.45L84.37-21.45Q81.42-21.45 77.87-18.15L77.87-18.15 77.87-5.4Q79.47-4 81.05-3.43 82.62-2.85 83.82-2.85ZM123.34 0.6L123.34 0.6Q120.74 0.6 118.39-0.35 116.04-1.3 114.29-2.75L114.29-2.75 116.34-5.5Q117.94-4.2 119.62-3.4 121.29-2.6 123.49-2.6L123.49-2.6Q125.89-2.6 127.09-3.7 128.29-4.8 128.29-6.4L128.29-6.4Q128.29-7.35 127.79-8.05 127.29-8.75 126.52-9.28 125.74-9.8 124.74-10.2 123.74-10.6 122.74-11L122.74-11Q121.44-11.45 120.14-12.03 118.84-12.6 117.82-13.43 116.79-14.25 116.14-15.35 115.49-16.45 115.49-18L115.49-18Q115.49-19.45 116.07-20.73 116.64-22 117.72-22.93 118.79-23.85 120.34-24.38 121.89-24.9 123.84-24.9L123.84-24.9Q126.14-24.9 128.07-24.1 129.99-23.3 131.39-22.15L131.39-22.15 129.44-19.55Q128.19-20.5 126.84-21.1 125.49-21.7 123.89-21.7L123.89-21.7Q121.59-21.7 120.52-20.65 119.44-19.6 119.44-18.2L119.44-18.2Q119.44-17.35 119.89-16.73 120.34-16.1 121.09-15.63 121.84-15.15 122.82-14.78 123.79-14.4 124.84-14L124.84-14Q126.14-13.5 127.47-12.95 128.79-12.4 129.84-11.58 130.89-10.75 131.57-9.55 132.24-8.35 132.24-6.65L132.24-6.65Q132.24-5.15 131.67-3.85 131.09-2.55 129.97-1.55 128.84-0.55 127.17 0.03 125.49 0.6 123.34 0.6ZM150.18 0.6L150.18 0.6Q147.93 0.6 145.9-0.25 143.88-1.1 142.33-2.73 140.78-4.35 139.85-6.73 138.93-9.1 138.93-12.1L138.93-12.1Q138.93-15.15 139.85-17.53 140.78-19.9 142.33-21.55 143.88-23.2 145.9-24.05 147.93-24.9 150.18-24.9L150.18-24.9Q152.43-24.9 154.45-24.05 156.48-23.2 158.03-21.55 159.58-19.9 160.5-17.53 161.43-15.15 161.43-12.1L161.43-12.1Q161.43-9.1 160.5-6.73 159.58-4.35 158.03-2.73 156.48-1.1 154.45-0.25 152.43 0.6 150.18 0.6ZM150.18-2.8L150.18-2.8Q151.73-2.8 153.03-3.48 154.33-4.15 155.25-5.38 156.18-6.6 156.68-8.3 157.18-10 157.18-12.1L157.18-12.1Q157.18-14.2 156.68-15.93 156.18-17.65 155.25-18.9 154.33-20.15 153.03-20.83 151.73-21.5 150.18-21.5L150.18-21.5Q148.63-21.5 147.33-20.83 146.03-20.15 145.1-18.9 144.18-17.65 143.68-15.93 143.18-14.2 143.18-12.1L143.18-12.1Q143.18-10 143.68-8.3 144.18-6.6 145.1-5.38 146.03-4.15 147.33-3.48 148.63-2.8 150.18-2.8ZM174.96 0.6L174.96 0.6Q172.61 0.6 171.61-0.8 170.61-2.2 170.61-4.9L170.61-4.9 170.61-35.6 174.71-35.6 174.71-4.6Q174.71-3.6 175.06-3.2 175.41-2.8 175.86-2.8L175.86-2.8Q176.06-2.8 176.24-2.8 176.41-2.8 176.76-2.9L176.76-2.9 177.31 0.2Q176.91 0.4 176.36 0.5 175.81 0.6 174.96 0.6ZM193.25 0.6L193.25 0.6Q189.35 0.6 187.57-1.8 185.8-4.2 185.8-8.9L185.8-8.9 185.8-24.3 189.95-24.3 189.95-9.45Q189.95-6 191.02-4.48 192.1-2.95 194.5-2.95L194.5-2.95Q196.4-2.95 197.85-3.93 199.3-4.9 201.05-7.05L201.05-7.05 201.05-24.3 205.15-24.3 205.15 0 201.75 0 201.4-3.8 201.25-3.8Q199.55-1.8 197.67-0.6 195.8 0.6 193.25 0.6ZM223.78 0.6L223.78 0.6Q221.83 0.6 220.51 0 219.18-0.6 218.36-1.65 217.53-2.7 217.18-4.2 216.83-5.7 216.83-7.5L216.83-7.5 216.83-20.95 213.23-20.95 213.23-24.05 217.03-24.3 217.53-31.1 220.98-31.1 220.98-24.3 227.53-24.3 227.53-20.95 220.98-20.95 220.98-7.45Q220.98-5.2 221.81-3.98 222.63-2.75 224.73-2.75L224.73-2.75Q225.38-2.75 226.13-2.95 226.88-3.15 227.48-3.4L227.48-3.4 228.28-0.3Q227.28 0.05 226.11 0.33 224.93 0.6 223.78 0.6ZM239.92 0L235.82 0 235.82-24.3 239.92-24.3 239.92 0ZM237.92-29.3L237.92-29.3Q236.72-29.3 235.89-30.05 235.07-30.8 235.07-31.95L235.07-31.95Q235.07-33.15 235.89-33.88 236.72-34.6 237.92-34.6L237.92-34.6Q239.12-34.6 239.94-33.88 240.77-33.15 240.77-31.95L240.77-31.95Q240.77-30.8 239.94-30.05 239.12-29.3 237.92-29.3ZM260.36 0.6L260.36 0.6Q258.11 0.6 256.08-0.25 254.06-1.1 252.51-2.73 250.96-4.35 250.03-6.73 249.11-9.1 249.11-12.1L249.11-12.1Q249.11-15.15 250.03-17.53 250.96-19.9 252.51-21.55 254.06-23.2 256.08-24.05 258.11-24.9 260.36-24.9L260.36-24.9Q262.61-24.9 264.63-24.05 266.66-23.2 268.21-21.55 269.76-19.9 270.68-17.53 271.61-15.15 271.61-12.1L271.61-12.1Q271.61-9.1 270.68-6.73 269.76-4.35 268.21-2.73 266.66-1.1 264.63-0.25 262.61 0.6 260.36 0.6ZM260.36-2.8L260.36-2.8Q261.91-2.8 263.21-3.48 264.51-4.15 265.43-5.38 266.36-6.6 266.86-8.3 267.36-10 267.36-12.1L267.36-12.1Q267.36-14.2 266.86-15.93 266.36-17.65 265.43-18.9 264.51-20.15 263.21-20.83 261.91-21.5 260.36-21.5L260.36-21.5Q258.81-21.5 257.51-20.83 256.21-20.15 255.28-18.9 254.36-17.65 253.86-15.93 253.36-14.2 253.36-12.1L253.36-12.1Q253.36-10 253.86-8.3 254.36-6.6 255.28-5.38 256.21-4.15 257.51-3.48 258.81-2.8 260.36-2.8ZM284.89 0L280.79 0 280.79-24.3 284.19-24.3 284.54-20.8 284.69-20.8Q286.44-22.55 288.37-23.73 290.29-24.9 292.84-24.9L292.84-24.9Q296.69-24.9 298.47-22.5 300.24-20.1 300.24-15.4L300.24-15.4 300.24 0 296.14 0 296.14-14.85Q296.14-18.3 295.04-19.83 293.94-21.35 291.54-21.35L291.54-21.35Q289.64-21.35 288.19-20.4 286.74-19.45 284.89-17.6L284.89-17.6 284.89 0ZM317.28 0.6L317.28 0.6Q314.68 0.6 312.33-0.35 309.98-1.3 308.23-2.75L308.23-2.75 310.28-5.5Q311.88-4.2 313.55-3.4 315.23-2.6 317.43-2.6L317.43-2.6Q319.83-2.6 321.03-3.7 322.23-4.8 322.23-6.4L322.23-6.4Q322.23-7.35 321.73-8.05 321.23-8.75 320.45-9.28 319.68-9.8 318.68-10.2 317.68-10.6 316.68-11L316.68-11Q315.38-11.45 314.08-12.03 312.78-12.6 311.75-13.43 310.73-14.25 310.08-15.35 309.43-16.45 309.43-18L309.43-18Q309.43-19.45 310-20.73 310.58-22 311.65-22.93 312.73-23.85 314.28-24.38 315.83-24.9 317.78-24.9L317.78-24.9Q320.08-24.9 322-24.1 323.93-23.3 325.33-22.15L325.33-22.15 323.38-19.55Q322.13-20.5 320.78-21.1 319.43-21.7 317.83-21.7L317.83-21.7Q315.53-21.7 314.45-20.65 313.38-19.6 313.38-18.2L313.38-18.2Q313.38-17.35 313.83-16.73 314.28-16.1 315.03-15.63 315.78-15.15 316.75-14.78 317.73-14.4 318.78-14L318.78-14Q320.08-13.5 321.4-12.95 322.73-12.4 323.78-11.58 324.83-10.75 325.5-9.55 326.18-8.35 326.18-6.65L326.18-6.65Q326.18-5.15 325.6-3.85 325.03-2.55 323.9-1.55 322.78-0.55 321.1 0.03 319.43 0.6 317.28 0.6Z" opacity="1" transform="matrix(1,0,0,1,0,0)" fill="#ffffff" class="slogan-text-1" data-fill-palette-color="secondary" id="text-1"></path></svg></g></svg></g></svg></g></svg></g><g transform="matrix(1,0,0,1,47.10921748250288,0)"><svg viewBox="0 0 97.78156503499424 84.35102940529556" height="84.35102940529556" width="97.78156503499424"><g><svg xmlns="http://www.w3.org/2000/svg" xmlns:xlink="http://www.w3.org/1999/xlink" version="1.1" x="0" y="0" viewBox="0.507 7.136 98.51299999999999 84.982" enable-background="new 0 0 100 100" xml:space="preserve" height="84.35102940529556" width="97.78156503499424" class="icon-icon-0" data-fill-palette-color="accent" id="icon-0"><g fill="#dad603" data-fill-palette-color="accent"><path d="M22.048 42.728l3.781 4.727 12.813 17.784c0.061 0.085 0.131 0.137 0.207 0.163L23.004 90.852 15.187 44.39 22.048 42.728 22.048 42.728zM0.507 55.422c0.008-0.154 0.071-0.324 0.201-0.494l11.41-14.799c0.103-0.132 0.334-0.325 0.667-0.24l8.336 1.908c0.241 0.09 0.235 0.11 0.304 0.181l-6.647 1.611c-0.24 0.061-0.294 0.081-0.435 0.189L0.507 55.422 0.507 55.422zM19.537 87.812l-3.778-4.885c-0.027-0.031-0.048-0.07-0.065-0.111l2.475-1.047L19.537 87.812 19.537 87.812zM21.713 88.462c-0.284 0.136-0.674 0.322-1.066 0.287l-1.74-7.685c-0.065-0.285-0.329-0.418-0.598-0.307l-2.327 0.985c0.62-0.937 1.926-2.029 2.329-2.479L13.357 50.91 1.485 55.936c-0.115 0.047-0.224 0.073-0.325 0.082L14.382 44.89 21.713 88.462 21.713 88.462zM37.129 61.631l8.919-7.785-6.737 10.819L37.129 61.631 37.129 61.631zM39.486 86.967l-15.721 5.151c6.968-5.792 15.873-13.211 23.971-19.97L39.486 86.967 39.486 86.967zM98.23 86.475l-57.626 0.293 8.921-16.026L98.23 86.475 98.23 86.475zM99.02 85.784L50.25 70.055c9.45-7.883 17.344-14.474 18.996-15.854L99.02 85.784 99.02 85.784zM49.038 69.889c-0.044 0.032-0.08 0.07-0.104 0.112C40.737 76.85 31.492 84.555 24.16 90.65l22.048-35.404L49.038 69.889 49.038 69.889zM60.498 60.363l-10.686 8.914-2.798-14.482L60.498 60.363 60.498 60.363zM55.514 57.355l-7.964-3.289 8.808 1.449L55.514 57.355 55.514 57.355zM79.921 8.222c-0.108 1.073-5.56 50.118-5.56 50.118l-4.756-5.04c-0.146-0.159-0.437-0.178-0.604-0.038l-7.755 6.475c-0.039-0.035-4.927-2.043-4.927-2.043l6.82-14.868C63.143 42.824 79.249 9.773 79.921 8.222L79.921 8.222zM32.224 7.136c0.106 0.058 0.21 0.149 0.307 0.277l28.445 38.034-4.242 9.247-10.755-1.771c-0.06-0.01-0.313 0.062-0.359 0.104l-2.346 2.057L32.224 7.136 32.224 7.136zM26.009 46.159l5.342-38.442c0.013-0.084 0.03-0.16 0.056-0.228l11.118 48.247-5.909 5.181L26.009 46.159 26.009 46.159z" fill="#ffffff" data-fill-palette-color="accent"></path></g></svg></g></svg></g><g></g></svg></g></svg></g></svg></g></svg></g><defs></defs></svg><rect width="320" height="360" fill="none" stroke="none" visibility="hidden"></rect></g></svg></g></svg>